<?xml version="1.0" encoding="UTF-8"?>
<svg width="200" height="50" viewBox="0 0 200 50" version="1.1" xmlns="http://www.w3.org/2000/svg">
  <g fill="#0A5C36">
    <!-- Plant with Circuit Roots -->
    <path d="M40 10 C40 10, 35 5, 30 5 C25 5, 20 10, 20 15 C20 20, 25 25, 30 25 C35 25, 40 20, 40 15" />
    <path d="M30 25 L30 35" />
    <path d="M30 35 C30 35, 20 35, 15 40 C15 40, 13 42, 13 45 C13 45, 13 47, 15 47" />
    <path d="M30 35 C30 35, 40 35, 45 40 C45 40, 47 42, 47 45 C47 45, 47 47, 45 47" />
    <circle cx="15" cy="47" r="2" />
    <circle cx="30" cy="47" r="2" />
    <circle cx="45" cy="47" r="2" />
    
    <!-- Text -->
    <text x="60" y="35" font-family="Arial" font-weight="bold" font-size="24">SYMBIOTEK</text>
  </g>
</svg>
