<?xml version="1.0" encoding="UTF-8"?>
<svg width="40" height="40" viewBox="0 0 40 40" version="1.1" xmlns="http://www.w3.org/2000/svg">
  <g fill="#0A5C36">
    <!-- Plant with Circuit Roots -->
    <path d="M20 5 C20 5, 25 10, 25 15 C25 20, 20 25, 15 25 C10 25, 5 20, 5 15 C5 10, 10 5, 15 5" />
    <path d="M20 25 L20 30" />
    <path d="M20 30 C20 30, 10 30, 8 33 C8 33, 7 34, 7 35 C7 35, 7 36, 8 36" />
    <path d="M20 30 C20 30, 30 30, 32 33 C32 33, 33 34, 33 35 C33 35, 33 36, 32 36" />
    <circle cx="8" cy="36" r="1.5" />
    <circle cx="20" cy="36" r="1.5" />
    <circle cx="32" cy="36" r="1.5" />
  </g>
</svg>
